<?xml version="1.0" standalone="no"?>
<!DOCTYPE svg PUBLIC "-//W3C//DTD SVG 20010904//EN"
 "http://www.w3.org/TR/2001/REC-SVG-20010904/DTD/svg10.dtd">
<svg version="1.0" xmlns="http://www.w3.org/2000/svg"
 width="920.000000pt" height="1202.000000pt" viewBox="0 0 920.000000 1202.000000"
 preserveAspectRatio="xMidYMid meet">

<g transform="translate(0.000000,1202.000000) scale(0.100000,-0.100000)"
fill="#000000" stroke="none">
<path d="M4620 12000 c-85 -4 -274 -11 -420 -14 -330 -8 -380 -12 -509 -37
-212 -42 -441 -143 -631 -277 -54 -38 -156 -128 -236 -207 -215 -214 -355
-413 -519 -740 -206 -407 -324 -794 -400 -1305 -41 -275 -63 -380 -93 -440
-23 -46 -36 -59 -83 -83 -51 -26 -69 -29 -225 -38 -94 -6 -207 -19 -254 -30
-47 -10 -131 -28 -187 -38 -120 -23 -314 -86 -404 -132 -105 -52 -205 -127
-289 -216 -118 -125 -188 -252 -244 -445 -48 -166 -56 -271 -60 -828 -4 -510
-13 -742 -41 -1120 -22 -285 -21 -1777 1 -1865 8 -33 21 -163 29 -290 16 -252
42 -398 96 -556 97 -286 270 -535 484 -697 95 -72 269 -156 390 -189 96 -26
110 -27 356 -28 l256 0 48 -30 c61 -37 101 -93 120 -165 8 -30 19 -136 25
-236 5 -99 21 -293 35 -430 14 -137 32 -346 40 -464 15 -224 31 -311 79 -430
58 -141 173 -274 298 -344 168 -93 489 -211 710 -260 226 -51 307 -59 568 -59
205 0 264 3 360 21 313 57 571 186 784 392 211 204 340 433 407 719 62 269 68
326 70 716 1 171 5 330 9 354 12 69 45 95 127 99 58 3 73 0 103 -20 62 -41 72
-77 86 -307 23 -384 81 -605 244 -934 152 -306 294 -417 588 -463 161 -25
1119 -24 1237 1 245 52 405 165 553 390 185 280 286 581 337 1000 35 286 63
473 161 1065 252 1534 291 1879 281 2440 -7 349 -24 512 -83 795 -48 226 -63
330 -64 421 0 167 26 253 120 394 135 202 223 395 280 613 l30 118 0 410 c0
396 -1 413 -24 522 -102 470 -317 820 -702 1143 -130 108 -167 159 -236 323
-289 684 -750 1155 -1427 1460 -371 167 -827 285 -1236 320 -132 12 -702 12
-945 1z m2249 -2294 c382 -51 692 -143 977 -291 398 -206 628 -457 708 -775
l24 -95 -21 -40 c-34 -60 -134 -157 -212 -203 -138 -81 -276 -114 -665 -157
-124 -14 -243 -27 -265 -29 -22 -3 -94 -10 -160 -16 -66 -6 -136 -12 -155 -14
-19 -3 -84 -8 -145 -11 -60 -4 -121 -9 -135 -11 -14 -3 -187 -8 -386 -11 -390
-6 -484 0 -655 42 -393 98 -656 351 -798 770 -48 142 -182 587 -178 591 6 7
774 173 912 198 171 30 338 54 465 66 143 13 545 5 689 -14z"/>
</g>
</svg>
